<?xml version="1.0" standalone="no"?>
<!DOCTYPE svg PUBLIC "-//W3C//DTD SVG 20010904//EN"
 "http://www.w3.org/TR/2001/REC-SVG-20010904/DTD/svg10.dtd">
<svg version="1.0" xmlns="http://www.w3.org/2000/svg"
 width="920.000000pt" height="920.000000pt" viewBox="0 0 920.000000 920.000000"
 preserveAspectRatio="xMidYMid meet">

<g transform="translate(0.000000,920.000000) scale(0.100000,-0.100000)"
fill="#000000" stroke="none">
<path d="M4130 9120 c-100 -5 -149 -12 -190 -28 -30 -12 -77 -22 -105 -22 -74
-1 -187 -19 -210 -34 -26 -16 -58 -24 -149 -36 -43 -5 -89 -18 -110 -31 -24
-14 -61 -23 -104 -27 -53 -4 -75 -11 -106 -33 -30 -21 -51 -29 -84 -29 -30 0
-53 -7 -75 -24 -18 -13 -52 -29 -77 -36 -25 -6 -61 -22 -80 -35 -19 -13 -54
-26 -77 -30 -23 -4 -47 -13 -54 -21 -18 -22 -64 -44 -92 -44 -13 0 -34 -11
-46 -24 -12 -13 -42 -29 -66 -35 -24 -6 -48 -17 -52 -25 -4 -8 -28 -24 -53
-36 -88 -42 -129 -65 -152 -88 -14 -12 -37 -22 -53 -22 -19 0 -40 -12 -65 -37
-54 -55 -95 -83 -120 -83 -14 0 -42 -20 -72 -50 -61 -62 -152 -130 -173 -130
-16 0 -99 -79 -383 -361 -216 -215 -342 -354 -342 -377 0 -6 -26 -41 -57 -78
-70 -83 -133 -166 -133 -176 0 -8 -62 -100 -91 -133 -9 -11 -20 -31 -24 -45
-4 -14 -17 -36 -30 -50 -12 -14 -31 -43 -42 -65 -10 -22 -54 -107 -96 -188
-42 -81 -77 -154 -77 -161 0 -6 -11 -27 -24 -45 -13 -17 -29 -53 -36 -79 -6
-26 -21 -57 -32 -69 -11 -12 -24 -42 -29 -67 -5 -25 -19 -70 -33 -98 -14 -29
-28 -71 -32 -93 -4 -22 -15 -57 -25 -77 -11 -21 -26 -71 -34 -113 -7 -41 -23
-87 -33 -102 -13 -18 -22 -52 -26 -98 -3 -39 -17 -107 -30 -151 -13 -45 -27
-116 -30 -160 -11 -128 -27 -217 -45 -249 -15 -27 -17 -75 -19 -425 -2 -421 6
-590 31 -656 9 -22 21 -102 27 -178 8 -107 16 -151 35 -197 14 -32 25 -73 25
-91 1 -49 24 -148 44 -187 10 -19 21 -62 24 -95 3 -38 13 -74 28 -96 12 -19
25 -57 29 -85 4 -27 20 -73 36 -101 16 -28 29 -62 29 -75 0 -13 11 -43 24 -66
13 -23 31 -66 40 -96 9 -30 22 -60 30 -66 8 -7 18 -25 21 -41 4 -16 17 -45 30
-64 13 -19 26 -45 30 -57 4 -13 20 -45 36 -70 16 -25 29 -53 29 -62 0 -9 13
-32 30 -50 17 -20 30 -46 30 -61 0 -17 11 -37 29 -54 36 -34 91 -120 91 -143
0 -10 12 -27 27 -39 31 -24 93 -115 93 -137 0 -8 27 -43 60 -77 33 -33 78 -88
100 -121 22 -33 50 -73 63 -88 40 -50 485 -497 495 -497 5 0 23 -13 40 -30 18
-16 36 -30 41 -30 14 0 161 -126 189 -161 13 -16 33 -29 46 -29 24 0 100 -51
129 -87 10 -13 27 -23 37 -23 10 0 31 -11 47 -24 15 -13 38 -26 50 -30 12 -4
31 -18 42 -32 11 -14 36 -30 55 -35 20 -5 48 -20 63 -33 15 -13 44 -27 63 -31
19 -4 46 -17 60 -30 14 -12 38 -26 54 -29 16 -4 42 -18 58 -31 16 -13 44 -27
63 -31 18 -3 48 -19 66 -35 23 -21 43 -29 69 -29 22 0 48 -9 69 -24 18 -13 54
-27 80 -31 31 -4 58 -16 80 -36 28 -24 42 -29 86 -29 42 0 59 -6 91 -30 32
-24 49 -29 96 -30 56 0 98 -12 128 -36 8 -6 66 -19 128 -28 73 -10 123 -23
140 -35 39 -27 215 -36 237 -11 13 15 15 260 15 2241 l0 2224 35 72 c19 40 35
76 35 81 0 5 9 17 20 27 11 10 20 25 20 34 0 8 39 53 86 98 68 65 93 83 116
83 21 0 39 11 62 35 28 29 38 34 63 29 22 -4 45 2 84 23 48 25 63 28 142 27
78 -2 92 -5 127 -29 30 -21 46 -25 69 -20 30 6 91 -16 91 -34 0 -5 16 -15 36
-21 25 -8 72 -48 140 -117 83 -82 104 -110 104 -132 0 -16 13 -44 29 -65 22
-28 31 -52 35 -94 4 -31 11 -76 16 -100 6 -27 10 -797 10 -2171 0 -1880 -2
-2130 -15 -2141 -20 -17 -19 -47 3 -59 26 -14 221 4 260 24 18 9 81 25 140 35
59 10 126 27 149 39 27 13 61 21 94 21 41 0 60 6 86 26 21 16 54 29 86 33 29
4 73 19 98 34 30 18 60 27 89 27 32 0 50 7 75 29 18 15 50 32 71 36 22 3 53
17 69 29 17 13 47 29 69 36 21 7 54 23 74 36 19 13 43 24 53 24 9 0 30 11 46
23 15 13 39 27 53 30 14 4 38 18 54 32 16 14 41 25 57 25 20 0 38 11 60 35 18
19 41 35 52 35 10 0 33 11 51 26 96 78 120 94 141 94 13 0 29 10 39 24 8 14
26 31 40 38 13 7 52 37 85 65 34 29 69 53 78 53 9 0 31 15 49 32 18 18 58 56
89 83 152 133 595 588 595 611 0 7 6 19 13 26 8 7 25 31 39 53 14 22 48 63 76
90 29 28 52 59 52 71 0 22 60 107 98 137 12 11 22 30 22 45 0 14 9 35 20 47
22 23 60 88 91 155 11 25 28 54 38 65 10 11 21 32 25 47 3 15 20 43 36 62 19
21 30 45 30 62 0 16 11 45 24 65 13 19 30 55 37 79 7 25 23 61 35 80 12 19 25
51 29 70 4 19 17 51 30 70 13 19 26 59 30 90 4 37 14 63 29 80 17 18 25 41 29
85 3 33 19 94 36 137 17 42 31 94 31 115 0 21 13 77 29 123 21 61 31 114 35
187 5 71 13 117 28 150 19 44 22 76 31 373 13 426 -1 846 -31 935 -11 33 -26
116 -32 185 -9 92 -17 134 -32 158 -12 20 -24 65 -30 115 -6 53 -18 100 -34
132 -14 28 -28 75 -31 105 -3 34 -14 68 -29 90 -14 21 -25 56 -29 88 -3 34
-13 65 -29 85 -13 18 -29 56 -36 84 -6 29 -21 64 -31 77 -11 14 -23 45 -28 71
-5 28 -19 58 -35 74 -15 16 -26 39 -26 55 0 17 -12 42 -30 63 -18 20 -30 45
-30 61 0 18 -11 39 -30 57 -16 16 -30 39 -30 51 0 12 -10 35 -23 51 -35 42
-97 139 -97 151 0 5 -16 29 -35 52 -19 23 -35 48 -35 55 0 7 -11 27 -25 43
-14 17 -25 34 -25 39 0 6 -10 18 -21 29 -30 26 -99 121 -99 135 0 11 -75 99
-173 203 -29 30 -79 85 -112 123 -54 61 -209 211 -408 393 -39 36 -86 79 -103
97 -17 18 -44 35 -60 39 -15 4 -56 31 -90 60 -35 30 -68 54 -74 54 -6 0 -22
11 -35 24 -13 14 -35 28 -47 31 -13 4 -35 18 -49 31 -23 22 -54 41 -149 91
-19 10 -43 28 -53 41 -12 14 -29 22 -48 22 -28 0 -79 40 -79 61 0 5 -18 9 -41
9 -33 0 -45 6 -66 30 -20 24 -33 30 -64 30 -31 0 -43 6 -61 30 -18 25 -29 30
-63 30 -28 0 -52 8 -73 24 -18 13 -50 26 -71 30 -20 3 -56 19 -79 36 -32 23
-52 30 -89 30 -34 0 -57 7 -84 26 -23 15 -62 29 -105 36 -38 6 -86 22 -106 35
-26 16 -53 23 -86 23 -49 0 -158 24 -176 39 -12 10 -116 26 -230 36 -38 3 -86
15 -108 26 -38 20 -60 21 -507 24 -256 1 -527 -1 -601 -5z m669 -744 c56 -3
109 -10 115 -15 7 -6 82 -12 167 -15 111 -3 166 -9 199 -21 60 -22 165 -44
216 -45 28 0 55 -9 87 -31 38 -25 54 -30 81 -25 40 8 78 -5 119 -40 20 -17 40
-25 61 -23 57 4 73 -1 111 -31 27 -22 49 -30 76 -30 31 0 43 -6 61 -30 18 -25
29 -30 63 -30 33 0 47 -6 70 -30 20 -21 38 -30 60 -30 22 0 40 -9 60 -30 20
-21 38 -30 61 -30 23 0 36 -7 48 -25 9 -14 33 -29 54 -35 22 -5 47 -19 56 -29
10 -11 30 -25 46 -31 16 -7 36 -23 45 -36 9 -14 25 -24 39 -24 25 0 91 -49
136 -99 14 -16 40 -33 57 -39 18 -6 38 -16 45 -21 102 -84 173 -152 366 -346
218 -220 312 -328 312 -358 0 -8 29 -45 65 -82 36 -38 65 -76 65 -85 0 -15 91
-143 110 -155 6 -3 10 -21 10 -39 0 -24 9 -41 35 -66 19 -19 35 -44 35 -56 0
-12 14 -38 30 -59 17 -21 30 -48 30 -61 0 -13 14 -39 30 -57 21 -24 30 -45 30
-69 0 -25 8 -44 30 -66 19 -20 30 -42 30 -61 0 -15 12 -46 26 -67 19 -27 29
-58 33 -101 5 -45 13 -69 30 -87 16 -17 25 -43 32 -95 5 -45 16 -81 29 -99 16
-21 23 -53 30 -119 4 -50 15 -104 24 -120 20 -40 34 -133 40 -279 3 -67 11
-135 17 -150 17 -40 24 -461 10 -539 -6 -33 -18 -145 -26 -250 -11 -140 -20
-202 -35 -236 -11 -26 -24 -82 -28 -126 -5 -44 -19 -101 -31 -127 -11 -26 -26
-77 -32 -113 -6 -36 -22 -82 -35 -101 -14 -21 -24 -49 -24 -71 0 -21 -14 -64
-35 -105 -19 -39 -35 -77 -35 -86 0 -9 -11 -31 -25 -50 -14 -19 -25 -46 -25
-61 0 -14 -11 -37 -24 -50 -31 -32 -49 -67 -42 -85 3 -8 -7 -29 -23 -47 -15
-17 -32 -46 -38 -62 -6 -17 -22 -48 -37 -69 -14 -21 -26 -43 -26 -48 0 -13
-50 -88 -87 -131 -18 -20 -33 -42 -33 -48 0 -20 -65 -111 -124 -174 -31 -33
-59 -69 -62 -80 -6 -18 -31 -52 -99 -134 -38 -46 -300 -304 -385 -379 -47 -41
-100 -81 -118 -89 -18 -7 -61 -42 -97 -76 -38 -37 -92 -77 -132 -96 -36 -19
-77 -46 -91 -62 -13 -16 -33 -29 -45 -29 -11 0 -32 -10 -46 -23 -36 -32 -140
-93 -173 -101 -14 -3 -40 -17 -56 -31 -17 -14 -39 -25 -49 -25 -11 0 -40 -13
-64 -30 -34 -23 -55 -30 -94 -30 -27 0 -56 4 -63 9 -11 6 -13 96 -13 451 l0
444 42 42 c23 24 55 46 71 49 15 4 33 15 38 25 5 10 26 24 45 30 19 6 41 19
48 28 19 27 90 78 117 87 28 8 16 -3 288 266 111 110 202 205 202 211 0 5 11
24 25 42 14 18 25 37 25 43 0 6 11 21 24 34 39 40 96 118 96 133 0 8 16 33 35
56 19 23 35 49 35 58 0 8 13 36 29 61 16 25 32 57 36 70 4 12 18 39 31 58 13
20 24 43 24 52 0 9 14 36 30 61 16 25 30 57 30 71 0 14 11 47 24 72 14 25 28
63 31 84 10 58 26 106 42 124 7 9 18 58 24 110 7 56 20 114 34 144 20 45 24
75 34 310 14 318 -3 723 -32 768 -9 14 -24 74 -32 133 -10 67 -25 125 -41 155
-14 30 -24 66 -24 92 0 30 -8 56 -25 80 -13 20 -29 54 -35 76 -6 22 -24 65
-40 96 -17 32 -30 65 -30 75 0 9 -9 29 -20 43 -11 14 -29 45 -40 68 -11 24
-36 71 -55 104 -19 33 -43 79 -54 102 -11 22 -26 45 -33 50 -15 8 -83 108 -89
131 -6 18 -122 142 -289 308 -247 245 -300 294 -320 294 -20 0 -109 62 -123
85 -4 8 -24 19 -45 26 -20 6 -50 22 -65 35 -16 13 -35 24 -42 24 -7 0 -26 11
-42 24 -15 13 -45 29 -66 35 -21 7 -50 23 -65 35 -15 13 -44 26 -65 29 -20 3
-50 15 -65 25 -15 11 -51 27 -80 35 -29 9 -66 25 -81 37 -16 11 -42 20 -59 20
-30 0 -92 19 -147 44 -16 8 -59 18 -95 21 -87 9 -141 23 -164 43 -12 12 -37
17 -80 17 -33 1 -160 5 -281 9 -294 11 -651 -6 -698 -34 -20 -12 -68 -23 -124
-30 -98 -11 -119 -16 -143 -35 -16 -13 -97 -35 -130 -35 -11 0 -37 -11 -58
-25 -20 -13 -56 -27 -80 -31 -24 -4 -59 -17 -77 -30 -19 -13 -52 -28 -74 -34
-21 -5 -44 -17 -51 -25 -6 -7 -33 -22 -58 -32 -26 -9 -62 -28 -81 -40 -19 -13
-40 -23 -47 -23 -8 0 -28 -13 -46 -30 -17 -16 -42 -30 -55 -30 -14 0 -38 -14
-57 -32 -47 -46 -116 -98 -130 -98 -7 0 -23 -11 -36 -25 -13 -14 -28 -25 -34
-25 -6 0 -24 -13 -41 -30 -365 -362 -422 -421 -435 -451 -16 -37 -60 -96 -142
-194 -16 -18 -28 -42 -28 -54 0 -12 -16 -37 -35 -57 -19 -19 -35 -45 -35 -57
0 -12 -14 -42 -30 -66 -17 -24 -30 -50 -30 -57 0 -7 -13 -35 -30 -61 -16 -26
-30 -57 -30 -69 0 -13 -6 -29 -13 -36 -32 -33 -47 -66 -47 -103 0 -27 -9 -53
-26 -79 -18 -27 -29 -59 -34 -100 -3 -34 -16 -77 -27 -96 -14 -24 -25 -69 -33
-140 -7 -58 -22 -134 -34 -170 -20 -62 -21 -83 -21 -460 0 -364 1 -398 18
-429 11 -20 24 -79 33 -150 8 -74 22 -137 38 -176 15 -34 26 -80 26 -106 0
-33 7 -57 26 -85 15 -21 33 -60 40 -86 6 -26 21 -63 33 -81 12 -19 21 -50 21
-69 0 -25 8 -42 30 -63 19 -18 30 -39 30 -56 0 -16 14 -44 35 -69 19 -23 35
-52 35 -65 0 -12 7 -28 15 -35 23 -19 95 -131 95 -147 0 -8 23 -41 51 -72 63
-68 129 -156 129 -171 0 -16 308 -322 356 -354 39 -26 76 -53 150 -111 21 -16
47 -40 57 -52 10 -13 29 -23 42 -23 13 0 36 -11 52 -23 15 -13 35 -28 45 -33
9 -5 35 -26 57 -47 l41 -38 0 -443 c0 -382 -2 -445 -15 -456 -23 -19 -120 -8
-148 17 -12 12 -36 24 -53 27 -17 4 -47 18 -65 32 -19 13 -51 30 -71 36 -21 6
-38 15 -38 19 0 4 -20 17 -43 28 -24 12 -54 32 -66 45 -13 13 -35 27 -49 31
-15 4 -41 17 -59 31 -17 13 -36 24 -42 24 -6 0 -23 16 -38 35 -18 23 -37 35
-52 35 -22 0 -101 61 -191 148 -14 13 -41 34 -60 48 -19 13 -51 34 -70 48 -40
27 -345 332 -363 362 -43 72 -56 90 -92 128 -83 86 -134 152 -141 181 -3 17
-18 42 -33 56 -52 53 -91 108 -91 131 0 14 -14 38 -35 58 -19 19 -35 40 -35
48 0 8 -9 26 -20 42 -11 15 -29 47 -40 71 -12 24 -43 87 -70 139 -28 52 -50
101 -50 108 0 7 -11 32 -24 55 -14 23 -28 61 -32 84 -3 23 -17 57 -30 74 -15
21 -26 53 -30 91 -4 40 -14 69 -29 86 -15 18 -26 51 -33 99 -6 40 -18 87 -27
105 -9 18 -23 85 -32 148 -8 63 -24 136 -34 162 -27 66 -38 287 -34 668 4 398
12 517 36 583 11 29 24 94 29 145 6 65 15 102 30 127 12 20 26 66 32 107 5 40
18 88 28 107 10 20 23 62 30 94 6 31 22 70 34 85 15 18 25 45 28 80 3 29 13
61 22 71 9 10 26 43 37 72 11 29 29 65 39 79 10 14 22 39 26 56 4 16 13 36 20
44 7 9 25 40 39 70 14 30 41 80 60 110 19 30 42 71 51 90 9 19 27 47 41 61 13
15 32 40 41 57 9 17 27 48 38 69 12 21 49 66 83 100 34 33 61 69 61 78 0 52
558 615 609 615 6 0 26 13 44 29 32 30 103 88 154 127 16 12 39 25 53 29 14 4
37 19 52 33 31 29 85 63 143 90 22 11 49 29 59 41 11 12 31 21 47 21 17 0 42
12 61 29 18 15 49 31 70 35 22 4 42 16 52 31 13 19 25 25 52 25 26 0 46 9 69
29 20 17 51 32 77 36 24 4 55 16 69 26 14 10 48 23 75 29 27 6 72 22 100 35
27 13 75 27 105 31 30 3 77 17 104 30 32 14 80 25 130 30 44 3 99 15 123 25
53 22 176 39 292 39 47 0 101 5 120 11 34 11 305 27 365 22 17 -1 77 -4 134
-7z m6 -1650 c19 -8 78 -18 132 -21 116 -7 192 -22 214 -42 10 -8 48 -19 85
-24 42 -6 80 -18 98 -30 15 -12 45 -23 66 -26 21 -3 52 -18 71 -34 19 -17 46
-29 61 -29 16 0 41 -12 60 -29 18 -16 47 -32 65 -35 17 -4 37 -14 44 -22 7 -9
29 -24 49 -34 19 -10 42 -30 50 -44 8 -16 22 -26 35 -26 34 0 85 -42 249 -205
210 -208 242 -245 249 -284 4 -18 18 -42 31 -52 34 -26 86 -105 93 -139 3 -16
18 -41 34 -56 18 -17 29 -38 29 -55 0 -15 11 -41 25 -58 14 -16 32 -53 41 -81
8 -27 23 -65 34 -83 10 -17 22 -54 25 -82 4 -27 19 -77 32 -110 19 -45 26 -84
30 -160 4 -62 12 -111 21 -130 25 -47 30 -386 7 -440 -9 -23 -21 -92 -26 -159
-7 -89 -16 -132 -33 -170 -13 -28 -27 -73 -31 -101 -4 -27 -17 -70 -30 -95
-12 -25 -25 -58 -29 -75 -4 -16 -18 -47 -31 -67 -13 -20 -27 -49 -31 -65 -4
-15 -13 -35 -20 -44 -15 -17 -59 -95 -93 -167 -11 -23 -28 -45 -36 -48 -9 -4
-25 -24 -36 -46 -11 -21 -26 -41 -34 -44 -8 -3 -17 -16 -21 -27 -7 -22 -96
-133 -141 -174 -15 -14 -37 -23 -56 -23 -66 0 -62 -60 -64 807 -2 433 -5 800
-8 816 -2 15 -13 40 -24 55 -11 15 -24 57 -29 93 -7 41 -20 79 -36 104 -14 21
-26 50 -26 66 0 15 -11 41 -25 57 -14 17 -32 46 -40 65 -8 20 -19 38 -25 42
-6 4 -17 22 -25 41 -16 40 -319 348 -352 358 -11 4 -28 18 -37 31 -10 16 -26
25 -42 25 -15 0 -38 14 -60 36 -28 27 -42 34 -60 30 -17 -5 -32 2 -56 23 -25
22 -46 29 -88 33 -36 3 -69 13 -95 30 -37 24 -53 27 -230 38 -139 8 -225 8
-320 1 -175 -15 -195 -18 -250 -47 -27 -13 -62 -24 -79 -24 -18 0 -50 -13 -75
-30 -24 -17 -56 -30 -71 -30 -16 0 -39 -12 -58 -30 -18 -16 -37 -30 -43 -30
-7 0 -27 -11 -45 -25 -18 -14 -42 -25 -53 -25 -11 0 -26 -6 -33 -14 -7 -8 -81
-84 -165 -169 -103 -107 -153 -165 -158 -186 -3 -16 -19 -45 -36 -63 -16 -18
-29 -40 -29 -49 0 -8 -11 -31 -25 -49 -14 -19 -28 -52 -32 -73 -3 -20 -19 -54
-35 -74 -16 -20 -28 -46 -27 -57 5 -44 -14 -143 -36 -186 l-23 -45 -1 -758
c-1 -417 -5 -765 -8 -773 -6 -16 -65 -19 -91 -5 -10 5 -35 36 -57 68 -39 58
-84 115 -127 163 -33 36 -82 111 -97 147 -7 17 -23 41 -37 54 -13 12 -24 31
-24 41 0 10 -16 41 -35 69 -19 28 -35 60 -35 71 0 10 -11 36 -25 56 -14 20
-25 46 -25 58 0 11 -12 43 -26 70 -14 26 -30 76 -36 109 -5 33 -21 89 -35 125
-25 63 -25 69 -28 385 -4 377 4 507 33 562 12 21 24 68 27 106 5 47 13 75 25
87 29 29 40 56 40 97 0 24 9 52 23 73 13 19 28 49 34 65 6 17 22 48 37 69 14
21 26 43 26 49 0 5 14 25 30 44 17 18 30 43 30 55 0 19 25 52 95 129 13 15 31
44 40 65 20 48 326 354 353 354 11 0 34 14 53 30 19 17 52 46 73 65 22 19 45
35 52 35 7 0 25 10 41 23 15 13 42 29 60 36 17 7 39 21 48 31 10 11 31 22 49
25 17 4 48 18 68 32 21 14 58 29 83 34 25 5 57 18 73 29 15 11 56 25 90 30 34
6 80 20 103 31 30 16 71 24 171 31 73 6 148 16 167 23 53 20 350 20 396 1z"/>
</g>
</svg>
